<?xml version="1.0" encoding="utf-8"?>
<!-- Generator: Adobe Illustrator 23.0.1, SVG Export Plug-In . SVG Version: 6.00 Build 0)  -->
<svg version="1.1" id="Capa_1" xmlns="http://www.w3.org/2000/svg" xmlns:xlink="http://www.w3.org/1999/xlink" x="0px" y="0px"
	 viewBox="0 0 225 254" style="enable-background:new 0 0 225 254;" xml:space="preserve">
<style type="text/css">
	.st0{clip-path:url(#SVGID_2_);}
	.st1{clip-path:url(#SVGID_4_);}
	.st2{clip-path:url(#SVGID_6_);fill:none;stroke:#BBBBBB;stroke-width:2;stroke-miterlimit:10;}
	.st3{clip-path:url(#SVGID_8_);fill:none;stroke:#BBBBBB;stroke-width:2;stroke-miterlimit:10;}
	.st4{clip-path:url(#SVGID_10_);fill:none;stroke:#BBBBBB;stroke-width:2;stroke-miterlimit:10;}
	.st5{clip-path:url(#SVGID_12_);fill:#E9E9E9;}
	.st6{clip-path:url(#SVGID_12_);fill:#D3D3D3;}
	.st7{clip-path:url(#SVGID_12_);fill:#0086C7;}
	.st8{clip-path:url(#SVGID_12_);fill:#E6494F;}
	.st9{clip-path:url(#SVGID_14_);fill:#40BEF9;}
	.st10{clip-path:url(#SVGID_16_);fill:#40BEF9;}
	.st11{clip-path:url(#SVGID_18_);fill:#40BEF9;}
	.st12{clip-path:url(#SVGID_20_);fill:#40BEF9;}
	.st13{clip-path:url(#SVGID_22_);fill:#004280;}
	.st14{opacity:0.2;clip-path:url(#SVGID_22_);}
	.st15{clip-path:url(#SVGID_24_);}
	.st16{clip-path:url(#SVGID_26_);fill:#040404;}
	.st17{clip-path:url(#SVGID_22_);fill:#FFB683;}
	.st18{clip-path:url(#SVGID_22_);fill:#FFDCC6;}
</style>
<g id="Ilustración_85_1_">
	<g>
		<defs>
			<rect id="SVGID_1_" x="3" y="2" width="220" height="249.9"/>
		</defs>
		<clipPath id="SVGID_2_">
			<use xlink:href="#SVGID_1_"  style="overflow:visible;"/>
		</clipPath>
		<g class="st0">
			<defs>
				<rect id="SVGID_3_" x="3" y="2" width="220" height="249.9"/>
			</defs>
			<clipPath id="SVGID_4_">
				<use xlink:href="#SVGID_3_"  style="overflow:visible;"/>
			</clipPath>
			<g class="st1">
				<defs>
					<path id="SVGID_5_" d="M63,112c0,27.6,22.4,50,50,50c27.6,0,50-22.4,50-50c0-27.6-22.4-50-50-50C85.4,62,63,84.4,63,112"/>
				</defs>
				<clipPath id="SVGID_6_">
					<use xlink:href="#SVGID_5_"  style="overflow:visible;"/>
				</clipPath>
				<path class="st2" d="M113,162c27.6,0,50-22.4,50-50c0-27.6-22.4-50-50-50s-50,22.4-50,50C63,139.6,85.4,162,113,162z"/>
			</g>
			<g class="st1">
				<defs>
					<path id="SVGID_7_" d="M32.5,112c0,44.5,36,80.5,80.5,80.5c44.5,0,80.5-36,80.5-80.5c0-44.5-36-80.5-80.5-80.5
						C68.5,31.5,32.5,67.5,32.5,112"/>
				</defs>
				<clipPath id="SVGID_8_">
					<use xlink:href="#SVGID_7_"  style="overflow:visible;"/>
				</clipPath>
				<path class="st3" d="M113,192.5c44.5,0,80.5-36,80.5-80.5c0-44.5-36-80.5-80.5-80.5s-80.5,36-80.5,80.5
					C32.5,156.5,68.5,192.5,113,192.5z"/>
			</g>
			<g class="st1">
				<defs>
					<path id="SVGID_9_" d="M113,2C52.2,2,3,51.2,3,112c0,60.8,49.2,110,110,110c60.6,0,109.8-49,110-109.6v-0.9
						C222.8,51,173.6,2,113,2z"/>
				</defs>
				<clipPath id="SVGID_10_">
					<use xlink:href="#SVGID_9_"  style="overflow:visible;"/>
				</clipPath>
				<ellipse transform="matrix(0.9871 -0.1599 0.1599 0.9871 -16.4538 19.5095)" class="st4" cx="113" cy="112" rx="110" ry="110"/>
			</g>
			<g class="st1">
				<defs>
					<rect id="SVGID_11_" x="3" y="2" width="220" height="249.9"/>
				</defs>
				<clipPath id="SVGID_12_">
					<use xlink:href="#SVGID_11_"  style="overflow:visible;"/>
				</clipPath>
				<path class="st5" d="M222.6,112.1c0,60.4-49,109.4-109.4,109.4c-60.4,0-109.4-49-109.4-109.4c0-60.4,49-109.4,109.4-109.4
					C173.7,2.8,222.6,51.7,222.6,112.1"/>
				<path class="st6" d="M190.2,34.4C147.3-8.1,78-7.8,35.5,35.2C-7,78.1-6.6,147.4,36.3,189.9L190.2,34.4z"/>
				<path class="st7" d="M63.7,107.9v52.2c0,0.3,0.3,0.5,0.7,0.5h15.9c0.4,0,0.7-0.2,0.7-0.5V91C81.1,90.7,63.7,107.9,63.7,107.9"/>
				<path class="st7" d="M93.5,96.6v63.3c0,0.4,0.3,0.7,0.7,0.7h15.9c0.4,0,0.7-0.3,0.7-0.7V79.1L93.5,96.6z"/>
				<path class="st7" d="M123.2,81.2v78.6c0,0.4,0.3,0.7,0.7,0.7h15.9c0.4,0,0.7-0.3,0.7-0.7V63.7C140.6,63.3,123.2,80.8,123.2,81.2
					"/>
				<path class="st7" d="M153,42.8v117.1c0,0.4,0.3,0.7,0.7,0.7h15.9c0.4,0,0.7-0.3,0.7-0.7V25.7C170.3,25.3,153,42.8,153,42.8"/>
				<path class="st8" d="M115.3,155.3c0,7.3-5.9,13.2-13.2,13.2c-7.3,0-13.2-5.9-13.2-13.2c0-7.3,5.9-13.2,13.2-13.2
					C109.4,142.2,115.3,148.1,115.3,155.3"/>
			</g>
			<g class="st1">
				<defs>
					<path id="SVGID_13_" d="M63.7,107.9v52.2c0,0.3,0.3,0.5,0.7,0.5h15.9c0.4,0,0.7-0.2,0.7-0.5V91l0,0
						C80.8,91,63.7,107.9,63.7,107.9"/>
				</defs>
				<clipPath id="SVGID_14_">
					<use xlink:href="#SVGID_13_"  style="overflow:visible;"/>
				</clipPath>
				<path class="st9" d="M58.4,166.8L173.8,50.4c0,0-32-11.5-57.7-13.6c-25.6-2.2-45,42.4-50.5,46.4c-5.4,4-5.6,1.7-7.2,7.1
					C56.9,95.6,58.4,166.8,58.4,166.8"/>
			</g>
			<g class="st1">
				<defs>
					<path id="SVGID_15_" d="M93.5,96.6v63.3c0,0.4,0.3,0.7,0.7,0.7h15.9c0.4,0,0.7-0.3,0.7-0.7V79.1L93.5,96.6z"/>
				</defs>
				<clipPath id="SVGID_16_">
					<use xlink:href="#SVGID_15_"  style="overflow:visible;"/>
				</clipPath>
				<path class="st10" d="M58.4,166.8L173.8,50.4c0,0-32-11.5-57.7-13.6c-25.6-2.2-47,1.4-52.4,5.4c-5.4,4-3.7,42.6-5.3,48
					C56.9,95.6,58.4,166.8,58.4,166.8"/>
			</g>
			<g class="st1">
				<defs>
					<path id="SVGID_17_" d="M123.2,81.2v78.7c0,0.4,0.3,0.7,0.7,0.7h15.9c0.4,0,0.7-0.3,0.7-0.7V63.7l0,0
						C140.2,63.7,123.2,80.8,123.2,81.2"/>
				</defs>
				<clipPath id="SVGID_18_">
					<use xlink:href="#SVGID_17_"  style="overflow:visible;"/>
				</clipPath>
				<path class="st11" d="M58.4,166.8L173.8,50.4c0,0-32-11.5-57.7-13.6c-25.6-2.2-47,1.4-52.4,5.4c-5.4,4-3.7,42.6-5.3,48
					C56.9,95.6,58.4,166.8,58.4,166.8"/>
			</g>
			<g class="st1">
				<defs>
					<path id="SVGID_19_" d="M153,42.8v117.1c0,0.4,0.3,0.7,0.7,0.7h15.9c0.4,0,0.7-0.3,0.7-0.7V25.7l0,0
						C170,25.7,153,42.8,153,42.8"/>
				</defs>
				<clipPath id="SVGID_20_">
					<use xlink:href="#SVGID_19_"  style="overflow:visible;"/>
				</clipPath>
				<path class="st12" d="M58.4,166.8L173.8,50.4c0,0,12.3-36.5-13.4-38.7c-25.7-2.2-91.2,26.5-96.6,30.4c-5.4,4-3.7,42.6-5.3,48
					C56.9,95.6,58.4,166.8,58.4,166.8"/>
			</g>
			<g class="st1">
				<defs>
					<rect id="SVGID_21_" x="3" y="2" width="220" height="249.9"/>
				</defs>
				<clipPath id="SVGID_22_">
					<use xlink:href="#SVGID_21_"  style="overflow:visible;"/>
				</clipPath>
				<path class="st13" d="M184.1,174.7H52.7c-0.8,0-1.4-0.6-1.4-1.4V43.9c0-0.8,0.6-1.4,1.4-1.4c0.8,0,1.4,0.6,1.4,1.4v128h130
					c0.8,0,1.4,0.6,1.4,1.4S184.9,174.7,184.1,174.7"/>
				<g class="st14">
					<g>
						<defs>
							<rect id="SVGID_23_" x="99.6" y="153.2" width="58.1" height="98.8"/>
						</defs>
						<clipPath id="SVGID_24_">
							<use xlink:href="#SVGID_23_"  style="overflow:visible;"/>
						</clipPath>
						<g class="st15">
							<defs>
								<rect id="SVGID_25_" x="99.6" y="153.2" width="58.1" height="98.8"/>
							</defs>
							<clipPath id="SVGID_26_">
								<use xlink:href="#SVGID_25_"  style="overflow:visible;"/>
							</clipPath>
							<path class="st16" d="M157.5,207l0.2-10.3c0-3.3-3.5-7.3-7.8-7.3c-2.5,0-4.7,0.9-6.2,2.3c-0.6-2.9-3.8-5.1-7.7-5.1
								c-2.6,0-4.8,0.9-6.2,2.4c-0.8-2.7-3.9-4.7-7.7-4.7c-2.8,0-5.3,1.2-6.7,2.9V161c0-4.3-3.5-7.9-7.8-7.9c-4.3,0-7.9,3.5-7.9,7.9
								v43.2v4.1l3.1,31.8c1,3.6,9.1,11.8,17.1,11.8h11.4c11.9,0,19.7-5.3,22.4-9c3-4.1,3.4-11.9,3.4-12.4L157.5,207L157.5,207
								L157.5,207z"/>
						</g>
					</g>
				</g>
				<path class="st17" d="M152.2,192l-0.2,10.3v0v0l-0.5,23.5c0,0.5-0.4,8.3-3.4,12.4c-2.7,3.7-10.4,9-22.4,9h-11.4
					c-7,0-14.3-6.4-16.5-10.4c-8.6-10-27.7-32.5-27.7-34.2c0-2.2,6-4.4,11-1.9c5.6,2.7,10.3,7.1,13.9,11l-0.8-8.1v-4.1v-43.2
					c0-4.3,3.5-7.9,7.9-7.9c4.3,0,7.9,3.5,7.9,7.9v26.3c1.4-1.7,3.9-2.9,6.7-2.9c3.7,0,6.9,2,7.7,4.7c1.4-1.4,3.7-2.4,6.2-2.4
					c3.9,0,7.1,2.2,7.7,5.1c1.4-1.4,3.7-2.3,6.2-2.3C148.7,184.7,152.2,188.7,152.2,192"/>
				<path class="st18" d="M106.7,160.3H97V156c0-2.7,2.2-4.8,4.8-4.8c2.7,0,4.8,2.2,4.8,4.8V160.3z"/>
			</g>
		</g>
	</g>
</g>
</svg>
