<?xml version="1.0" encoding="utf-8"?>
<!-- Generator: Adobe Illustrator 23.0.1, SVG Export Plug-In . SVG Version: 6.00 Build 0)  -->
<svg version="1.1" id="Capa_1" xmlns="http://www.w3.org/2000/svg" xmlns:xlink="http://www.w3.org/1999/xlink" x="0px" y="0px"
	 viewBox="0 0 164 182" style="enable-background:new 0 0 164 182;" xml:space="preserve">
<style type="text/css">
	.st0{clip-path:url(#SVGID_2_);}
	.st1{clip-path:url(#SVGID_4_);fill:#C2EEF0;}
	.st2{clip-path:url(#SVGID_4_);fill:#0086CD;}
	.st3{clip-path:url(#SVGID_4_);fill:#00BEFF;}
	.st4{clip-path:url(#SVGID_4_);}
	.st5{opacity:0.48;clip-path:url(#SVGID_6_);}
	.st6{clip-path:url(#SVGID_8_);}
	.st7{clip-path:url(#SVGID_10_);fill:#0086CD;}
	.st8{opacity:0.48;clip-path:url(#SVGID_12_);}
	.st9{clip-path:url(#SVGID_14_);}
	.st10{clip-path:url(#SVGID_16_);fill:#0086CD;}
	.st11{clip-path:url(#SVGID_4_);fill:#004283;}
	.st12{opacity:0.41;clip-path:url(#SVGID_18_);}
	.st13{clip-path:url(#SVGID_20_);fill:#004283;}
	.st14{clip-path:url(#SVGID_18_);fill:#004283;}
	.st15{clip-path:url(#SVGID_18_);fill:#2A86CA;}
	.st16{clip-path:url(#SVGID_18_);fill:#F3F4F4;}
</style>
<g id="Ilustración_79_1_">
	<g>
		<defs>
			<rect id="SVGID_1_" x="1" y="1" width="160" height="179"/>
		</defs>
		<clipPath id="SVGID_2_">
			<use xlink:href="#SVGID_1_"  style="overflow:visible;"/>
		</clipPath>
		<g class="st0">
			<defs>
				<rect id="SVGID_3_" x="1" y="1" width="160" height="179"/>
			</defs>
			<clipPath id="SVGID_4_">
				<use xlink:href="#SVGID_3_"  style="overflow:visible;"/>
			</clipPath>
			<rect x="5.6" y="74.8" class="st1" width="150.8" height="97.5"/>
			<rect x="1" y="68.9" class="st2" width="160" height="11.9"/>
			<rect x="1" y="172.4" class="st2" width="160" height="7.6"/>
			<polygon class="st3" points="140.3,172.3 97.1,171.2 97.1,93.9 140.3,93.9 			"/>
			<g class="st4">
				<defs>
					<polygon id="SVGID_5_" points="97.1,93.9 97.1,171.2 140.3,172.3 140.3,93.9 					"/>
				</defs>
				<clipPath id="SVGID_6_">
					<use xlink:href="#SVGID_5_"  style="overflow:visible;"/>
				</clipPath>
				<g class="st5">
					<g>
						<defs>
							<rect id="SVGID_7_" x="90.2" y="96.4" width="59.3" height="91.4"/>
						</defs>
						<clipPath id="SVGID_8_">
							<use xlink:href="#SVGID_7_"  style="overflow:visible;"/>
						</clipPath>
						<g class="st6">
							<defs>
								<rect id="SVGID_9_" x="90.2" y="96.4" width="59.2" height="91.4"/>
							</defs>
							<clipPath id="SVGID_10_">
								<use xlink:href="#SVGID_9_"  style="overflow:visible;"/>
							</clipPath>
							<path class="st7" d="M90.2,156.5c3.7-2.2,59.3-60.1,59.3-60.1L147,184l-38.3,3.8L90.2,156.5z"/>
						</g>
					</g>
				</g>
			</g>
			<rect x="13.6" y="93.9" class="st3" width="69.7" height="64.9"/>
			<g class="st4">
				<defs>
					<rect id="SVGID_11_" x="13.6" y="93.9" width="69.7" height="64.9"/>
				</defs>
				<clipPath id="SVGID_12_">
					<use xlink:href="#SVGID_11_"  style="overflow:visible;"/>
				</clipPath>
				<g class="st8">
					<g>
						<defs>
							<rect id="SVGID_13_" x="13.5" y="83.3" width="85.7" height="99.6"/>
						</defs>
						<clipPath id="SVGID_14_">
							<use xlink:href="#SVGID_13_"  style="overflow:visible;"/>
						</clipPath>
						<g class="st9">
							<defs>
								<rect id="SVGID_15_" x="13.5" y="83.3" width="85.7" height="99.6"/>
							</defs>
							<clipPath id="SVGID_16_">
								<use xlink:href="#SVGID_15_"  style="overflow:visible;"/>
							</clipPath>
							<path class="st10" d="M13.5,164.4c0-3.1,79.9-81.1,79.9-81.1l5.8,36l-3.7,61.9H51.9l-17.5,1.6L13.5,164.4z"/>
						</g>
					</g>
				</g>
			</g>
			<rect x="97.1" y="156.5" class="st11" width="43.2" height="15.8"/>
			<rect x="97.1" y="93.9" class="st11" width="43.2" height="4.4"/>
			<rect x="13.6" y="93.9" class="st11" width="69.7" height="4.4"/>
			<rect x="13.6" y="154.3" class="st11" width="69.7" height="4.4"/>
			<g class="st4">
				<defs>
					<rect id="SVGID_17_" x="1" y="1" width="160" height="179"/>
				</defs>
				<clipPath id="SVGID_18_">
					<use xlink:href="#SVGID_17_"  style="overflow:visible;"/>
				</clipPath>
				<g class="st12">
					<g>
						<defs>
							<rect id="SVGID_19_" x="5.6" y="80.7" width="150.8" height="6.3"/>
						</defs>
						<clipPath id="SVGID_20_">
							<use xlink:href="#SVGID_19_"  style="overflow:visible;"/>
						</clipPath>
						<rect x="5.6" y="80.7" class="st13" width="150.8" height="6.3"/>
					</g>
				</g>
				<path class="st14" d="M107.2,128.9c0,1.9-1.5,3.4-3.4,3.4c-1.9,0-3.4-1.5-3.4-3.4c0-1.9,1.5-3.4,3.4-3.4
					C105.7,125.4,107.2,127,107.2,128.9"/>
				<path class="st15" d="M106.9,1H60.1C47.2,1,36.8,11.5,36.8,24.5v2.6c0,13,10.5,23.5,23.4,23.5h13l10.4,11.1l10.4-11.1h13
					c12.9,0,23.4-10.5,23.4-23.5v-2.6C130.2,11.5,119.8,1,106.9,1"/>
				<path class="st16" d="M104.3,28.9l3-10l3,10H104.3z M112,17.1c-0.6-1.8-0.9-2.2-2.6-2.2h-4.2l-6.7,21.9h3.4l1.4-4.7h7.9l1.4,4.7
					h5.9L112,17.1z"/>
				<path class="st16" d="M71.9,33.9V17.7h2.8c1.3,0,2.5,1.1,2.5,2.5c0,0.5-0.1,0.9-0.6,1.6l-1.8,2.7c1.9,0.5,3.1,1.9,3.1,4.6
					c0,3.3-2,4.7-4.6,4.7H71.9z M79,23.5l1-1.6c2.3-3.4,0.7-7-3.7-7h-9.5v21.9H76C84,36.8,86.4,27.4,79,23.5"/>
				<path class="st16" d="M55.1,33.9h-1.6V17.7h2.8c1.3,0,2.5,1.1,2.5,2.5c0,0.5-0.1,0.9-0.6,1.6l-1.8,2.7c1.9,0.5,3.2,1.9,3.2,4.6
					C59.6,32.5,57.7,33.9,55.1,33.9 M60.6,23.5l1.1-1.6c2.2-3.4,0.7-7-3.7-7h-9.5v21.9h9.2C65.6,36.8,68,27.4,60.6,23.5"/>
				<path class="st16" d="M88.6,17.7c-0.8-2.5-1.2-2.9-2.7-2.9h-3.8l7.1,21.9h5.2l6.6-21.9h-3.5l-4.9,16.7L88.6,17.7z"/>
			</g>
		</g>
	</g>
</g>
</svg>
