<?xml version="1.0" encoding="utf-8"?>
<!-- Generator: Adobe Illustrator 23.0.1, SVG Export Plug-In . SVG Version: 6.00 Build 0)  -->
<svg version="1.1" id="Capa_1" xmlns="http://www.w3.org/2000/svg" xmlns:xlink="http://www.w3.org/1999/xlink" x="0px" y="0px"
	 viewBox="0 0 313 258" style="enable-background:new 0 0 313 258;" xml:space="preserve">
<style type="text/css">
	.st0{clip-path:url(#SVGID_2_);}
	.st1{clip-path:url(#SVGID_4_);}
	.st2{clip-path:url(#SVGID_6_);fill:#004481;}
	.st3{opacity:0.66;clip-path:url(#SVGID_8_);}
	.st4{clip-path:url(#SVGID_10_);fill:#D0EFF0;}
	.st5{clip-path:url(#SVGID_8_);fill:#A28E58;}
	.st6{clip-path:url(#SVGID_8_);fill:#FDDBC4;}
	.st7{clip-path:url(#SVGID_8_);fill:#2A86CA;}
	.st8{clip-path:url(#SVGID_8_);fill:#F8CD51;}
	.st9{clip-path:url(#SVGID_12_);fill:none;stroke:#BABABA;stroke-width:1.766;stroke-miterlimit:10;}
	.st10{clip-path:url(#SVGID_14_);fill:#40BDF8;}
	.st11{clip-path:url(#SVGID_16_);fill:#02804D;}
	.st12{clip-path:url(#SVGID_16_);fill:#0DA96A;}
	.st13{opacity:0.5;clip-path:url(#SVGID_16_);}
	.st14{clip-path:url(#SVGID_18_);fill:#6B5BAC;}
	.st15{clip-path:url(#SVGID_20_);fill:#FFFFFF;}
	
		.st16{clip-path:url(#SVGID_20_);fill:none;stroke:#D0EFF0;stroke-width:6;stroke-linecap:round;stroke-linejoin:round;stroke-miterlimit:10;}
</style>
<g id="Ilustración_82_1_">
	<g>
		<defs>
			<rect id="SVGID_1_" x="2" y="2" width="308.1" height="253.6"/>
		</defs>
		<clipPath id="SVGID_2_">
			<use xlink:href="#SVGID_1_"  style="overflow:visible;"/>
		</clipPath>
		<g class="st0">
			<defs>
				<rect id="SVGID_3_" x="2" y="2" width="308.1" height="253.6"/>
			</defs>
			<clipPath id="SVGID_4_">
				<use xlink:href="#SVGID_3_"  style="overflow:visible;"/>
			</clipPath>
			<g class="st1">
				<defs>
					<rect id="SVGID_5_" x="2" y="2" width="308.1" height="253.6"/>
				</defs>
				<clipPath id="SVGID_6_">
					<use xlink:href="#SVGID_5_"  style="overflow:visible;"/>
				</clipPath>
				<path class="st2" d="M286.8,128.8c0,70-56.8,126.8-126.8,126.8S33.2,198.8,33.2,128.8C33.2,58.8,90,2,160,2
					S286.8,58.8,286.8,128.8"/>
			</g>
			<g class="st1">
				<defs>
					<path id="SVGID_7_" d="M160,2C90,2,33.2,58.8,33.2,128.8c0,70,56.8,126.8,126.8,126.8c70,0,126.8-56.8,126.8-126.8
						C286.8,58.8,230,2,160,2z"/>
				</defs>
				<clipPath id="SVGID_8_">
					<use xlink:href="#SVGID_7_"  style="overflow:visible;"/>
				</clipPath>
				<g class="st3">
					<g>
						<defs>
							<rect id="SVGID_9_" x="79.8" y="175.1" width="167.6" height="169.9"/>
						</defs>
						<clipPath id="SVGID_10_">
							<use xlink:href="#SVGID_9_"  style="overflow:visible;"/>
						</clipPath>
						<path class="st4" d="M247.4,260c0,46.9-37.5,84.9-83.8,84.9c-46.3,0-83.8-38-83.8-84.9s37.5-84.9,83.8-84.9
							C209.9,175.1,247.4,213.1,247.4,260"/>
					</g>
				</g>
				<path class="st5" d="M130.8,143l23.4-24.6c0.1-0.1,0.3-0.3,0.4-0.4l-2.1-2l-17.8,18.6c-2.1,2.2-5.6,2.3-7.7,0.2
					c-2.2-2.1-2.3-5.6-0.2-7.7l23.5-24.6c0.4-0.4,18.1-18.6,18.1-18.6l-21.1,1.5c-3,0.2-5.6-2.1-5.9-5.1c-0.2-3,2.1-5.6,5.1-5.9
					l33.8-2.4c1.9-0.8,4.3-0.5,5.9,1.1l29.7,28.4c2.2,2.1,2.3,5.6,0.2,7.7l-21.4,22.4l-8.5,8.9l-14.9,15.7c-2.1,2.2-5.6,2.3-7.7,0.2
					c-2.2-2.1-2.3-5.6-0.2-7.7l11.2-11.7l-2-2l-20,21c-2.1,2.2-5.6,2.3-7.7,0.2c-2.2-2.1-2.3-5.6-0.2-7.7l20-21l-2.1-2
					c-0.1,0.1-0.2,0.3-0.4,0.4l-23.4,24.6c-2.1,2.2-5.6,2.3-7.8,0.2C128.8,148.6,128.7,145.2,130.8,143"/>
				<path class="st6" d="M194.8,137.6l-23.6-24.4c-0.1-0.1-0.3-0.3-0.4-0.4l2.1-2l17.9,18.5c2.1,2.2,5.6,2.2,7.8,0.1
					c2.2-2.1,2.2-5.6,0.1-7.8L175,97.3c-0.4-0.4-18.3-18.4-18.3-18.4l21.1,1.3c3,0.2,5.6-2.1,5.8-5.1c0.2-3-2.1-5.6-5.1-5.8
					l-33.8-2.1c-2-0.8-4.3-0.4-5.9,1.1l-29.5,28.6c-2.2,2.1-2.2,5.6-0.1,7.7l21.6,22.2l8.6,8.9l15.1,15.5c2.1,2.2,5.6,2.2,7.7,0.1
					c2.2-2.1,2.2-5.6,0.1-7.7L151,132l2-2l20.2,20.9c2.1,2.2,5.6,2.2,7.8,0.1c2.2-2.1,2.2-5.6,0.1-7.8l-20.2-20.9l2.1-2
					c0.1,0.1,0.2,0.3,0.4,0.4l23.7,24.4c2.1,2.2,5.6,2.2,7.8,0.1C196.9,143.3,196.9,139.8,194.8,137.6"/>
				<path class="st5" d="M164.7,87.6c2.3-2.3,3.9-3.9,3.9-3.9l-21.1,1.1c-3,0.2-5.6-2.2-5.8-5.2c-0.2-3,2.2-5.6,5.2-5.8l33.8-1.8
					c2-0.8,4.3-0.4,5.9,1.2l29.2,28.9c2.2,2.1,2.2,5.6,0,7.8l-9.6,9.7"/>
				<polygon class="st7" points="188.3,69.6 238.5,19.3 269.5,53.7 221.7,101.6 				"/>
				<polygon class="st8" points="136.4,65.2 86.1,14.9 55.1,49.4 103,97.2 				"/>
			</g>
			<g class="st1">
				<defs>
					<path id="SVGID_11_" d="M114.3,247.1c14.2,5.5,29.6,8.5,45.7,8.5c18.5,0,36.1-4,51.9-11.1c-7.3-19.9-26.2-34-48.4-34
						C140.4,210.5,120.9,225.9,114.3,247.1"/>
				</defs>
				<clipPath id="SVGID_12_">
					<use xlink:href="#SVGID_11_"  style="overflow:visible;"/>
				</clipPath>
				<path class="st9" d="M163.5,315.2c28.5,0,51.6-23.4,51.6-52.4c0-28.9-23.1-52.4-51.6-52.4c-28.5,0-51.6,23.4-51.6,52.4
					C111.9,291.8,135,315.2,163.5,315.2z"/>
			</g>
			<g class="st1">
				<defs>
					<path id="SVGID_13_" d="M160,2C90,2,33.2,58.8,33.2,128.8c0,70,56.8,126.8,126.8,126.8c70,0,126.8-56.8,126.8-126.8
						C286.8,58.8,230,2,160,2z"/>
				</defs>
				<clipPath id="SVGID_14_">
					<use xlink:href="#SVGID_13_"  style="overflow:visible;"/>
				</clipPath>
				<path class="st10" d="M235.7,262.5c0,40.4-32.3,73.1-72.1,73.1s-72.1-32.7-72.1-73.1c0-40.4,32.3-73.1,72.1-73.1
					S235.7,222.1,235.7,262.5"/>
			</g>
			<g class="st1">
				<defs>
					<path id="SVGID_15_" d="M95.6,238.1c18.9,11.1,40.9,17.5,64.4,17.5c26,0,50.1-7.8,70.2-21.2c-10.9-26.4-36.6-45-66.6-45
						C132.2,189.4,105.5,209.7,95.6,238.1"/>
				</defs>
				<clipPath id="SVGID_16_">
					<use xlink:href="#SVGID_15_"  style="overflow:visible;"/>
				</clipPath>
				<path class="st11" d="M124.9,270.6H45.5c-0.8,0-1.4-1.6-1.4-3.5v-52.8c0-1.9,0.6-3.5,1.4-3.5h95.8c0.8,0,1.4,1.6,1.4,3.5
					c0,0-0.3,23.3-0.8,39.7L124.9,270.6z"/>
				<path class="st12" d="M123,268.7H43.6c-0.8,0-1.4-1.6-1.4-3.5v-52.8c0-1.9,0.6-3.5,1.4-3.5h95.8c0.8,0,1.4,1.6,1.4,3.5
					c0,0-0.3,23.3-0.8,39.7L123,268.7z"/>
				<path class="st11" d="M271.5,248.5c0,1.6-0.4,2.8-1,2.8h-65.4c-0.5,0-1-1.3-1-2.8v-42.8c0-1.6,0.4-2.8,1-2.8h65.4
					c0.5,0,1,1.3,1,2.8V248.5z"/>
				<path class="st11" d="M207.1,262.1c0,0.8-0.2,1.4-0.4,1.4h-23.9c-0.2,0-0.4-0.6-0.4-1.4v-21.5c0-0.8,0.2-1.4,0.4-1.4h23.9
					c0.2,0,0.4,0.6,0.4,1.4V262.1z"/>
				<path class="st12" d="M269.4,246.3c0,1.6-0.4,2.8-1,2.8H203c-0.5,0-1-1.3-1-2.8v-42.8c0-1.6,0.4-2.8,1-2.8h65.4
					c0.5,0,1,1.3,1,2.8V246.3z"/>
				<path class="st12" d="M205,259.9c0,0.8-0.2,1.4-0.4,1.4h-23.9c-0.2,0-0.4-0.6-0.4-1.4v-21.5c0-0.8,0.2-1.4,0.4-1.4h23.9
					c0.2,0,0.4,0.6,0.4,1.4V259.9z"/>
				<g class="st13">
					<g>
						<defs>
							<rect id="SVGID_17_" x="80.1" y="185.8" width="189.1" height="162"/>
						</defs>
						<clipPath id="SVGID_18_">
							<use xlink:href="#SVGID_17_"  style="overflow:visible;"/>
						</clipPath>
						<polygon class="st14" points="80.1,309.5 203.8,185.8 269.2,279.3 246.7,320.7 210.9,339.1 174.6,347.8 136.4,345.3 
							105.6,325.9 						"/>
					</g>
				</g>
			</g>
			<g class="st1">
				<defs>
					<rect id="SVGID_19_" x="2" y="2" width="308.1" height="253.6"/>
				</defs>
				<clipPath id="SVGID_20_">
					<use xlink:href="#SVGID_19_"  style="overflow:visible;"/>
				</clipPath>
				<path class="st15" d="M291.5,189.3l17,0c1-1.6,1.6-3.5,1.6-5.5c0-5.6-4.5-10.1-10.1-10.1c-1.8,0-3.5,0.5-5,1.3
					c-0.5-9.4-8.3-16.9-17.9-17c-8.6,0-15.8,6-17.6,14c-1.9-1.2-4.1-2-6.5-2c-6.6,0-11.9,5.3-11.9,11.8c0,2.7,0.9,5.2,2.4,7.2
					l18.8,0.1"/>
				<path class="st15" d="M41.4,124.5l13.3,0c0.8-1.2,1.3-2.7,1.3-4.3c0-4.4-3.5-8-7.9-8c-1.4,0-2.7,0.4-3.9,1
					c-0.4-7.4-6.5-13.3-14-13.3c-6.7,0-12.4,4.7-13.8,11c-1.5-1-3.2-1.5-5.1-1.5c-5.1,0-9.3,4.1-9.3,9.3c0,2.1,0.7,4.1,1.9,5.7
					l14.8,0"/>
				<path class="st16" d="M124.2,169.4C92.6,150.8,81,110.4,98.4,77.8"/>
				<path class="st16" d="M154.9,41.3c12.3-0.8,24.9,1.7,36.6,7.9c9.5,5,17.4,12,23.3,20.2"/>
				<path class="st16" d="M129.9,47.7c4.1-1.9,8.5-3.5,12.9-4.6"/>
				<path class="st16" d="M224.5,88.3c5.8,17.3,4.7,36.8-4.5,54.1c-4.9,9.1-11.5,16.7-19.2,22.6"/>
			</g>
		</g>
	</g>
</g>
</svg>
