<?xml version="1.0" encoding="utf-8"?>
<!-- Generator: Adobe Illustrator 23.0.1, SVG Export Plug-In . SVG Version: 6.00 Build 0)  -->
<svg version="1.1" id="Capa_1" xmlns="http://www.w3.org/2000/svg" xmlns:xlink="http://www.w3.org/1999/xlink" x="0px" y="0px"
	 viewBox="0 0 105 215" style="enable-background:new 0 0 105 215;" xml:space="preserve">
<style type="text/css">
	.st0{clip-path:url(#SVGID_2_);}
	.st1{clip-path:url(#SVGID_4_);}
	.st2{clip-path:url(#SVGID_6_);fill:#5BBEFF;}
	.st3{clip-path:url(#SVGID_6_);fill:#2A86CA;}
	.st4{clip-path:url(#SVGID_6_);fill:#D0EFF0;}
	.st5{opacity:0.26;clip-path:url(#SVGID_8_);}
	.st6{clip-path:url(#SVGID_10_);fill:#D3D3D3;}
	.st7{clip-path:url(#SVGID_12_);fill:#004481;}
	.st8{opacity:0.3;clip-path:url(#SVGID_12_);}
	.st9{clip-path:url(#SVGID_14_);fill:#FFFFFF;}
	.st10{clip-path:url(#SVGID_16_);fill:#FFFFFF;}
	.st11{clip-path:url(#SVGID_12_);fill:#FFFFFF;}
	.st12{clip-path:url(#SVGID_12_);fill:#FFB784;}
	.st13{opacity:0.39;clip-path:url(#SVGID_18_);}
	.st14{clip-path:url(#SVGID_20_);fill:#A28E58;}
	.st15{clip-path:url(#SVGID_22_);fill:#FFDDC7;}
	.st16{clip-path:url(#SVGID_22_);fill:#68CCCC;}
</style>
<g id="Ilustración_80_1_">
	<g>
		<defs>
			<rect id="SVGID_1_" x="3" y="3" width="100.1" height="210"/>
		</defs>
		<clipPath id="SVGID_2_">
			<use xlink:href="#SVGID_1_"  style="overflow:visible;"/>
		</clipPath>
		<g class="st0">
			<defs>
				<rect id="SVGID_3_" x="3" y="3" width="100.1" height="210"/>
			</defs>
			<clipPath id="SVGID_4_">
				<use xlink:href="#SVGID_3_"  style="overflow:visible;"/>
			</clipPath>
			<g class="st1">
				<defs>
					<rect id="SVGID_5_" x="3" y="3" width="100.1" height="210"/>
				</defs>
				<clipPath id="SVGID_6_">
					<use xlink:href="#SVGID_5_"  style="overflow:visible;"/>
				</clipPath>
				<path class="st2" d="M103.1,173.2c0,4.5-3.7,8.1-8.2,8.1H16.4c-4.6,0-8.2-3.6-8.2-8.1V11.3c0-4.5,3.7-8.1,8.2-8.1h78.4
					c4.5,0,8.2,3.6,8.2,8.1V173.2z"/>
				<path class="st3" d="M97.9,173c0,4.5-3.7,8.1-8.2,8.1H11.2c-4.6,0-8.2-3.6-8.2-8.1V11.1C3,6.6,6.7,3,11.2,3h78.4
					c4.6,0,8.2,3.6,8.2,8.1V173z"/>
				<rect x="3" y="25.8" class="st4" width="95" height="130.1"/>
			</g>
			<g class="st1">
				<defs>
					<rect id="SVGID_7_" x="3" y="25.8" width="95" height="130.1"/>
				</defs>
				<clipPath id="SVGID_8_">
					<use xlink:href="#SVGID_7_"  style="overflow:visible;"/>
				</clipPath>
				<g class="st5">
					<g>
						<defs>
							<rect id="SVGID_9_" x="-15.3" y="23.2" width="139.1" height="148.1"/>
						</defs>
						<clipPath id="SVGID_10_">
							<use xlink:href="#SVGID_9_"  style="overflow:visible;"/>
						</clipPath>
						<polygon class="st6" points="-15.3,170.4 123.8,23.2 123.8,171.3 						"/>
					</g>
				</g>
			</g>
			<g class="st1">
				<defs>
					<rect id="SVGID_11_" x="3" y="3" width="100.1" height="210"/>
				</defs>
				<clipPath id="SVGID_12_">
					<use xlink:href="#SVGID_11_"  style="overflow:visible;"/>
				</clipPath>
				<path class="st7" d="M56.4,169.1c0,4.1-3.1,7.4-7,7.4c-3.9,0-7-3.3-7-7.4c0-4.1,3.1-7.4,7-7.4C53.3,161.7,56.4,165,56.4,169.1"
					/>
				<path class="st7" d="M61.2,9.8c0,1.3-1,2.3-2.2,2.3H39.7c-1.2,0-2.2-1-2.2-2.3c0-1.3,1-2.3,2.2-2.3h19.4
					C60.3,7.6,61.2,8.6,61.2,9.8"/>
				<g class="st8">
					<g>
						<defs>
							<rect id="SVGID_13_" x="3" y="3" width="58.8" height="63.8"/>
						</defs>
						<clipPath id="SVGID_14_">
							<use xlink:href="#SVGID_13_"  style="overflow:visible;"/>
						</clipPath>
						<path class="st9" d="M61.8,3H9.3C6,3,3,7.5,3,10.8v56L61.8,3z"/>
					</g>
				</g>
				<g class="st8">
					<g>
						<defs>
							<rect id="SVGID_15_" x="3" y="121.8" width="63.1" height="59.5"/>
						</defs>
						<clipPath id="SVGID_16_">
							<use xlink:href="#SVGID_15_"  style="overflow:visible;"/>
						</clipPath>
						<path class="st10" d="M3,121.8v53.1c0,3.3,4.4,6.4,7.7,6.4h55.3L3,121.8z"/>
					</g>
				</g>
				<path class="st7" d="M84,90.2H16.5c-2.8,0-5.1-2.3-5.1-5.1V63.4c0-2.8,2.3-5.1,5.1-5.1H84c2.8,0,5.1,2.3,5.1,5.1v21.7
					C89,87.9,86.7,90.2,84,90.2"/>
				<path class="st11" d="M70.1,76.6l2.6-8.9l2.7,8.9H70.1z M76.9,66.1c-0.5-1.6-0.8-2-2.3-2h-3.7l-5.9,19.6h3l1.3-4.2h7.1l1.3,4.2
					h5.3L76.9,66.1z"/>
				<path class="st11" d="M41.2,81.1V66.6h2.5c1.2,0,2.2,1,2.2,2.2c0,0.4-0.1,0.8-0.5,1.4l-1.6,2.5c1.7,0.4,2.8,1.7,2.8,4.2
					c0,2.9-1.7,4.2-4.1,4.2H41.2z M47.5,71.8l0.9-1.4c2-3,0.6-6.3-3.3-6.3h-8.5v19.6h8.2C52,83.7,54.2,75.3,47.5,71.8"/>
				<path class="st11" d="M26.2,81.1h-1.4V66.6h2.5c1.2,0,2.2,1,2.2,2.2c0,0.4-0.1,0.8-0.5,1.4l-1.6,2.5c1.7,0.4,2.8,1.7,2.8,4.2
					C30.2,79.8,28.5,81.1,26.2,81.1 M31.1,71.8l1-1.4c2-3,0.6-6.3-3.3-6.3h-8.5v19.6h8.2C35.5,83.7,37.7,75.3,31.1,71.8"/>
				<path class="st11" d="M56,66.6c-0.7-2.2-1-2.6-2.4-2.6h-3.4l6.4,19.6h4.7l5.9-19.6h-3.1L59.7,79L56,66.6z"/>
				<path class="st12" d="M79.3,123.6l-0.2,9.8v0v0l-0.5,22.4c0,0.5-0.4,7.9-3.3,11.8c-2.5,3.5-9.9,8.6-21.1,8.6l-27.9-1.3
					c-12.3-27.2-11.2-33.6-11.2-35.2c0-3.6,9.3-8,9.3-8l0.1-42.3c0-4.1,3.3-7.5,7.4-7.5c4.1,0,7.4,3.4,7.4,7.5l0,25
					c1.3-1.6,3.6-2.7,6.3-2.7c3.5,0,6.5,1.9,7.2,4.5c1.4-1.4,3.5-2.3,5.9-2.3c3.7,0,6.7,2.1,7.3,4.8c1.4-1.3,3.5-2.2,5.8-2.2
					C76,116.7,79.3,120.4,79.3,123.6"/>
			</g>
			<g class="st1">
				<defs>
					<path id="SVGID_17_" d="M24.6,89.5l-0.2,42.3c0,0-9.3,4.4-9.3,8c0,1.6-1.1,7.9,11.2,35.2l27.9,1.3c11.2,0,18.5-5.1,21.1-8.6
						c2.8-3.9,3.3-11.3,3.3-11.8l0.5-22.4v0v0l0.2-9.8c0-3.2-3.3-6.9-7.4-6.9c-2.4,0-4.5,0.9-5.8,2.2c-0.6-2.7-3.6-4.8-7.3-4.8
						c-2.4,0-4.5,0.9-5.9,2.3c-0.7-2.6-3.7-4.5-7.2-4.5c-2.7,0-5,1.1-6.3,2.7l0-25c0-4.1-3.3-7.5-7.4-7.5
						C27.9,82,24.6,85.3,24.6,89.5"/>
				</defs>
				<clipPath id="SVGID_18_">
					<use xlink:href="#SVGID_17_"  style="overflow:visible;"/>
				</clipPath>
				<g class="st13">
					<g>
						<defs>
							<rect id="SVGID_19_" x="12.1" y="99.2" width="101.4" height="105.2"/>
						</defs>
						<clipPath id="SVGID_20_">
							<use xlink:href="#SVGID_19_"  style="overflow:visible;"/>
						</clipPath>
						<path class="st14" d="M12.1,184.2l84-85l17.4,71.5c0,0-40,32.6-42.7,33.6c-2.8,1-38.2-4.8-38.2-4.8L12.1,184.2z"/>
					</g>
				</g>
			</g>
			<g class="st1">
				<defs>
					<rect id="SVGID_21_" x="3" y="3" width="100.1" height="210"/>
				</defs>
				<clipPath id="SVGID_22_">
					<use xlink:href="#SVGID_21_"  style="overflow:visible;"/>
				</clipPath>
				<path class="st15" d="M36.1,92.3l-8.5,0l0-3.8c0-2.4,1.9-4.3,4.3-4.3c2.3,0,4.3,1.9,4.2,4.3L36.1,92.3z"/>
				<rect x="23.2" y="172.7" class="st16" width="51.6" height="40.3"/>
			</g>
		</g>
	</g>
</g>
</svg>
