<?xml version="1.0" encoding="utf-8"?>
<!-- Generator: Adobe Illustrator 23.0.1, SVG Export Plug-In . SVG Version: 6.00 Build 0)  -->
<svg version="1.1" id="Capa_1" xmlns="http://www.w3.org/2000/svg" xmlns:xlink="http://www.w3.org/1999/xlink" x="0px" y="0px"
	 viewBox="0 0 146 140" style="enable-background:new 0 0 146 140;" xml:space="preserve">
<style type="text/css">
	.st0{clip-path:url(#SVGID_2_);}
	.st1{clip-path:url(#SVGID_4_);}
	.st2{clip-path:url(#SVGID_6_);fill:#001B45;}
	.st3{opacity:0.61;clip-path:url(#SVGID_6_);}
	.st4{clip-path:url(#SVGID_8_);fill:#C2EEF0;}
	.st5{clip-path:url(#SVGID_6_);fill:#0086CD;}
	.st6{opacity:0.55;clip-path:url(#SVGID_10_);}
	.st7{clip-path:url(#SVGID_12_);fill:#715BAF;}
	.st8{clip-path:url(#SVGID_10_);fill:#00AF5F;}
	.st9{clip-path:url(#SVGID_14_);fill:#FFFFFF;}
	.st10{clip-path:url(#SVGID_14_);fill:#00AF5F;}
	.st11{clip-path:url(#SVGID_14_);fill:#F8DC8C;}
	.st12{clip-path:url(#SVGID_14_);fill:#FFDE8A;}
	.st13{clip-path:url(#SVGID_16_);fill:#FFDE8A;}
</style>
<g id="Ilustración_81_1_">
	<g>
		<defs>
			<rect id="SVGID_1_" x="2" y="2" width="141.9" height="135.6"/>
		</defs>
		<clipPath id="SVGID_2_">
			<use xlink:href="#SVGID_1_"  style="overflow:visible;"/>
		</clipPath>
		<g class="st0">
			<defs>
				<rect id="SVGID_3_" x="2" y="2" width="141.9" height="135.6"/>
			</defs>
			<clipPath id="SVGID_4_">
				<use xlink:href="#SVGID_3_"  style="overflow:visible;"/>
			</clipPath>
			<g class="st1">
				<defs>
					<rect id="SVGID_5_" x="2" y="2" width="141.9" height="135.6"/>
				</defs>
				<clipPath id="SVGID_6_">
					<use xlink:href="#SVGID_5_"  style="overflow:visible;"/>
				</clipPath>
				<path class="st2" d="M131,66.5c0,35.6-28.9,64.5-64.5,64.5C30.9,131,2,102.1,2,66.5C2,30.9,30.9,2,66.5,2
					C102.1,2,131,30.9,131,66.5"/>
				<g class="st3">
					<g>
						<defs>
							<rect id="SVGID_7_" x="30.6" y="24.4" width="113.3" height="113.3"/>
						</defs>
						<clipPath id="SVGID_8_">
							<use xlink:href="#SVGID_7_"  style="overflow:visible;"/>
						</clipPath>
						<path class="st4" d="M143.9,81c0,31.3-25.4,56.6-56.6,56.6S30.6,112.3,30.6,81c0-31.3,25.4-56.6,56.6-56.6
							S143.9,49.7,143.9,81"/>
					</g>
				</g>
				<path class="st5" d="M137.2,81c0,27.6-22.4,50-50,50s-50-22.4-50-50s22.4-50,50-50S137.2,53.4,137.2,81"/>
			</g>
			<g class="st1">
				<defs>
					<path id="SVGID_9_" d="M37.2,81c0,27.6,22.4,50,50,50s50-22.4,50-50c0-27.6-22.4-50-50-50S37.2,53.4,37.2,81"/>
				</defs>
				<clipPath id="SVGID_10_">
					<use xlink:href="#SVGID_9_"  style="overflow:visible;"/>
				</clipPath>
				<g class="st6">
					<g>
						<defs>
							<rect id="SVGID_11_" x="43.7" y="31.8" width="115.8" height="124.1"/>
						</defs>
						<clipPath id="SVGID_12_">
							<use xlink:href="#SVGID_11_"  style="overflow:visible;"/>
						</clipPath>
						<polyline class="st7" points="43.7,128.6 140.5,31.8 159.5,126.2 111.6,146.7 78.6,155.9 43.7,132.9 						"/>
					</g>
				</g>
				<path class="st8" d="M92.4,68.6L71.7,47.8c-0.8-1.7-0.5-3.9,0.9-5.3c1.8-1.8,4.8-1.8,6.6,0l13.3,13.1c1.8,1.8,4.8,1.8,6.6,0
					c1.5-1.5,1.8-3.9,0.7-5.7l5.1,5.1c1.8,1.8,4.8,1.8,6.6,0c1.8-1.8,1.8-4.8,0-6.6l-9.6-9.6l10.5-10.5l-31-31l-17,17L64.1,14
					c-1.8-1.8-4.8-1.8-6.6,0c-1.8,1.8-1.8,4.8,0,6.6l0.3,0.3L37.9,40.8c-1.8-1.5-4.6-1.4-6.3,0.3c-1.7,1.7-1.8,4.4-0.3,6.3L24.7,54
					c-1.8-1.5-4.6-1.4-6.3,0.3c-1.7,1.7-1.8,4.4-0.3,6.3L3.2,75.5l31,31l8.3-8.3l-0.5-0.5c-1.8-1.8-1.8-4.8,0-6.6
					c1.8-1.8,4.8-1.8,6.6,0l5.4,5.4c1.8,1.3,4.4,1.1,6-0.5c1.8-1.8,1.8-4.8,0-6.6L41,70.2c-1.8-1.8-1.8-4.8,0-6.6
					c1.8-1.8,4.8-1.8,6.6,0l19.8,19.8c1.8,1.1,4.2,0.9,5.8-0.7c1.8-1.8,1.8-4.8,0-6.6L62.1,64.8c-1.8-1.8-1.8-4.8,0-6.6
					s4.8-1.8,6.6,0l17.1,17c1.8,1.8,4.8,1.8,6.6,0C94.2,73.4,94.2,70.4,92.4,68.6"/>
				<path class="st8" d="M155.7,13.2L134.9-7.6c-0.8-1.7-0.5-3.9,0.9-5.3c1.8-1.8,4.8-1.8,6.6,0l13.3,13.1c1.8,1.8,4.8,1.8,6.6,0
					c1.5-1.5,1.8-3.9,0.7-5.7l5.1,5.1c1.8,1.8,4.8,1.8,6.6,0c1.8-1.8,1.8-4.8,0-6.6l-9.6-9.6l10.5-10.5l-31-31l-17,17l-0.3-0.3
					c-1.8-1.8-4.8-1.8-6.6,0c-1.8,1.8-1.8,4.8,0,6.6l0.3,0.3l-19.9,19.9c-1.8-1.5-4.6-1.4-6.3,0.3S93.1-9.9,94.6-8L88-1.4
					c-1.8-1.5-4.6-1.4-6.3,0.3c-1.7,1.7-1.8,4.4-0.3,6.3L66.5,20.1L95.2,46l10.7-3.2l-0.5-0.5c-1.8-1.8-1.8-4.8,0-6.6s4.8-1.8,6.6,0
					l5.4,5.4c1.8,1.3,4.4,1.1,6-0.5c1.8-1.8,1.8-4.8,0-6.6l-19.1-19.1c-1.8-1.8-1.8-4.8,0-6.6c1.8-1.8,4.8-1.8,6.6,0L130.8,28
					c1.8,1.1,4.2,0.9,5.8-0.7c1.8-1.8,1.8-4.8,0-6.6L125.4,9.4c-1.8-1.8-1.8-4.8,0-6.6c1.8-1.8,4.8-1.8,6.6,0l17.1,17
					c1.8,1.8,4.8,1.8,6.6,0C157.5,18,157.5,15,155.7,13.2"/>
				<path class="st8" d="M96.7,107.3l14.9,14.9c0.6,1.2,0.4,2.8-0.7,3.8c-1.3,1.3-3.5,1.3-4.8,0l-9.6-9.4c-1.3-1.3-3.5-1.3-4.8,0
					c-1.1,1.1-1.3,2.8-0.5,4.1l-3.6-3.6c-1.3-1.3-3.4-1.3-4.8,0c-1.3,1.3-1.3,3.4,0,4.8l6.9,6.9l-7.6,7.6l22.3,22.3l12.3-12.3
					l0.2,0.2c1.3,1.3,3.4,1.3,4.8,0c1.3-1.3,1.3-3.5,0-4.8l-0.2-0.2l14.3-14.3c1.3,1.1,3.3,1,4.5-0.2c1.2-1.2,1.3-3.2,0.2-4.5
					l4.7-4.7c1.3,1.1,3.3,1,4.5-0.2c1.2-1.2,1.3-3.2,0.2-4.5l10.7-10.7l-15-2.8L132.5,86l0.3,0.3c1.3,1.3,1.3,3.4,0,4.8
					c-1.3,1.3-3.4,1.3-4.8,0l-3.9-3.9c-1.3-0.9-3.2-0.8-4.3,0.4c-1.3,1.3-1.3,3.4,0,4.8l13.7,13.8c1.3,1.3,1.3,3.5,0,4.8
					c-1.3,1.3-3.4,1.3-4.8,0l-14.3-14.3c-1.3-0.8-3-0.7-4.2,0.5c-1.3,1.3-1.3,3.4,0,4.8l8,8.1c1.3,1.3,1.3,3.5,0,4.8
					c-1.3,1.3-3.4,1.3-4.8,0l-12.3-12.2c-1.3-1.3-3.4-1.3-4.8,0C95.3,103.8,95.3,106,96.7,107.3"/>
			</g>
			<g class="st1">
				<defs>
					<rect id="SVGID_13_" x="2" y="2" width="141.9" height="135.6"/>
				</defs>
				<clipPath id="SVGID_14_">
					<use xlink:href="#SVGID_13_"  style="overflow:visible;"/>
				</clipPath>
				<path class="st9" d="M47,101.7h9.2c0.6-0.9,0.9-1.9,0.9-3c0-3-2.4-5.5-5.5-5.5c-1,0-1.9,0.3-2.7,0.7c-0.3-5.1-4.5-9.1-9.7-9.1
					c-4.6,0-8.5,3.3-9.5,7.6c-1-0.7-2.2-1-3.5-1c-3.5,0-6.4,2.9-6.4,6.4c0,1.5,0.5,2.8,1.3,3.9h10.1"/>
				<path class="st9" d="M133.7,82.8h7.5c0.4-0.7,0.7-1.5,0.7-2.4c0-2.5-2-4.4-4.4-4.4c-0.8,0-1.5,0.2-2.2,0.6
					c-0.2-4.1-3.7-7.4-7.9-7.4c-3.8,0-6.9,2.7-7.7,6.2c-0.8-0.5-1.8-0.9-2.9-0.9c-2.9,0-5.2,2.3-5.2,5.2c0,1.2,0.4,2.3,1.1,3.2h8.3"
					/>
				<path class="st10" d="M77.3,111.2l-4.8-4.8c-1.3-1.3-1.3-3.5,0-4.8c1.3-1.3,3.5-1.3,4.8,0l4.8,4.8c1.3,1.3,1.3,3.5,0,4.8
					C80.7,112.5,78.6,112.5,77.3,111.2"/>
				<polygon class="st11" points="16,53 18.3,53.7 16,54.5 15.3,56.7 14.5,54.5 12.3,53.7 14.5,53 15.3,50.7 				"/>
				<polygon class="st11" points="29.1,43.3 30.6,43.8 29.1,44.2 28.6,45.7 28.2,44.2 26.7,43.8 28.2,43.3 28.6,41.8 				"/>
				<polygon class="st11" points="16.3,75.9 19.3,76.9 16.3,77.9 15.3,81 14.3,77.9 11.2,76.9 14.3,75.9 15.3,72.9 				"/>
				<polygon class="st11" points="89.2,11.9 91.9,12.8 89.2,13.6 88.4,16.3 87.5,13.6 84.8,12.8 87.5,11.9 88.4,9.3 				"/>
				<path class="st12" d="M56,26.3c0-2.2,1.8-4,4-4c2.2,0,4,1.8,4,4c0,2.2-1.8,4-4,4C57.8,30.2,56,28.5,56,26.3 M59.7,16.3
					c-6.7,0-10.2,4.3-10.2,10.4c0,8.2,10.1,18.9,10.1,18.9c0.2,0.2,0.4,0.2,0.6,0c0,0,10.4-10.7,10.4-18.8c0-6.1-3.8-10.5-10.4-10.5
					H59.7z"/>
			</g>
			<g class="st1">
				<defs>
					<path id="SVGID_15_" d="M56,26.3c0-2.2,1.8-4,4-4c2.2,0,4,1.8,4,4c0,2.2-1.8,4-4,4C57.8,30.2,56,28.5,56,26.3 M59.7,16.3
						c-6.7,0-10.2,4.3-10.2,10.4c0,8.2,10.1,18.9,10.1,18.9c0.2,0.2,0.4,0.2,0.6,0c0,0,10.4-10.7,10.4-18.8
						c0-6.1-3.8-10.5-10.4-10.5H59.7z"/>
				</defs>
				<clipPath id="SVGID_16_">
					<use xlink:href="#SVGID_15_"  style="overflow:visible;"/>
				</clipPath>
				<rect x="48.8" y="15.6" class="st13" width="22.4" height="30.8"/>
			</g>
		</g>
	</g>
</g>
</svg>
