<?xml version="1.0" encoding="utf-8"?>
<!-- Generator: Adobe Illustrator 23.0.1, SVG Export Plug-In . SVG Version: 6.00 Build 0)  -->
<svg version="1.1" id="Capa_1" xmlns="http://www.w3.org/2000/svg" xmlns:xlink="http://www.w3.org/1999/xlink" x="0px" y="0px"
	 viewBox="0 0 247 264" style="enable-background:new 0 0 247 264;" xml:space="preserve">
<style type="text/css">
	.st0{clip-path:url(#SVGID_2_);}
	.st1{clip-path:url(#SVGID_4_);}
	.st2{opacity:0.34;clip-path:url(#SVGID_6_);}
	.st3{clip-path:url(#SVGID_8_);fill:#5BBEFF;}
	.st4{clip-path:url(#SVGID_8_);}
	.st5{clip-path:url(#SVGID_10_);fill:#2A86CA;}
	.st6{opacity:0.31;clip-path:url(#SVGID_10_);}
	.st7{clip-path:url(#SVGID_12_);fill:#6B5BAC;}
	.st8{clip-path:url(#SVGID_4_);fill:#FADE8E;}
	.st9{clip-path:url(#SVGID_14_);fill:#B94B4A;}
	.st10{clip-path:url(#SVGID_14_);fill:#F6C5CA;}
	.st11{clip-path:url(#SVGID_16_);fill:#EC818E;}
	.st12{clip-path:url(#SVGID_18_);fill:#F96561;}
	.st13{opacity:5.000310e-02;clip-path:url(#SVGID_18_);}
	.st14{clip-path:url(#SVGID_20_);}
	.st15{clip-path:url(#SVGID_22_);}
	.st16{clip-path:url(#SVGID_18_);fill:#BC9A41;}
	.st17{clip-path:url(#SVGID_18_);fill:none;stroke:#BC9A41;stroke-width:1.461;stroke-miterlimit:10;}
	.st18{clip-path:url(#SVGID_18_);fill:#FADE92;}
	.st19{clip-path:url(#SVGID_24_);fill:#F9CD58;}
	.st20{clip-path:url(#SVGID_26_);fill:#FB8C3E;}
	.st21{opacity:5.000310e-02;clip-path:url(#SVGID_26_);}
	.st22{clip-path:url(#SVGID_28_);}
	.st23{clip-path:url(#SVGID_30_);}
	.st24{opacity:0.2;clip-path:url(#SVGID_26_);}
	.st25{clip-path:url(#SVGID_26_);fill:#00A4A5;}
	.st26{opacity:0.1;clip-path:url(#SVGID_26_);}
	.st27{clip-path:url(#SVGID_34_);}
	.st28{clip-path:url(#SVGID_36_);}
	.st29{clip-path:url(#SVGID_26_);fill:#5CCBCC;}
	.st30{clip-path:url(#SVGID_38_);fill:#00CACD;}
	.st31{clip-path:url(#SVGID_40_);fill:#FADE8E;}
</style>
<g id="Ilustración_84_1_">
	<g>
		<defs>
			<rect id="SVGID_1_" x="2" y="2" width="242.9" height="259.1"/>
		</defs>
		<clipPath id="SVGID_2_">
			<use xlink:href="#SVGID_1_"  style="overflow:visible;"/>
		</clipPath>
		<g class="st0">
			<defs>
				<rect id="SVGID_3_" x="2" y="2" width="242.9" height="259.1"/>
			</defs>
			<clipPath id="SVGID_4_">
				<use xlink:href="#SVGID_3_"  style="overflow:visible;"/>
			</clipPath>
			<g class="st1">
				<defs>
					<rect id="SVGID_5_" x="2" y="2" width="242.9" height="259.1"/>
				</defs>
				<clipPath id="SVGID_6_">
					<use xlink:href="#SVGID_5_"  style="overflow:visible;"/>
				</clipPath>
				<g class="st2">
					<g>
						<defs>
							<rect id="SVGID_7_" x="-18.2" y="2" width="315.6" height="290"/>
						</defs>
						<clipPath id="SVGID_8_">
							<use xlink:href="#SVGID_7_"  style="overflow:visible;"/>
						</clipPath>
						<path class="st3" d="M244.9,123.4c0,67.1-54.4,121.4-121.4,121.4C56.4,244.9,2,190.5,2,123.4C2,56.4,56.4,2,123.4,2
							C190.5,2,244.9,56.4,244.9,123.4"/>
						<g class="st4">
							<defs>
								<path id="SVGID_9_" d="M244.9,123.4c0,67.1-54.4,121.4-121.4,121.4C56.4,244.9,2,190.5,2,123.4C2,56.4,56.4,2,123.4,2
									C190.5,2,244.9,56.4,244.9,123.4"/>
							</defs>
							<clipPath id="SVGID_10_">
								<use xlink:href="#SVGID_9_"  style="overflow:visible;"/>
							</clipPath>
							<rect x="-18.2" y="187.5" class="st5" width="273.5" height="90.9"/>
							<g class="st6">
								<g>
									<defs>
										<rect id="SVGID_11_" x="-3.3" y="3.7" width="300.8" height="288.4"/>
									</defs>
									<clipPath id="SVGID_12_">
										<use xlink:href="#SVGID_11_"  style="overflow:visible;"/>
									</clipPath>
									<path class="st7" d="M-3.3,245.7L238.7,3.7c0,0,60.3,215.6,58.7,218.1c-1.7,2.5-59.5,56.2-59.5,56.2s2.9,18.2-63,13.2
										c-65.9-5-57.6-3.3-57.6-3.3L-3.3,245.7z"/>
								</g>
							</g>
						</g>
					</g>
				</g>
			</g>
			<polygon class="st8" points="68.8,43.1 78.2,46 68.8,49.1 65.8,58.4 62.8,49.1 53.5,46 62.8,43.1 65.8,33.7 			"/>
			<polygon class="st8" points="24.5,137.8 29.9,139.5 24.5,141.2 22.8,146.6 21.1,141.2 15.8,139.5 21.1,137.8 22.8,132.5 			"/>
			<polygon class="st8" points="221.1,127 225.8,128.5 221.1,130 219.6,134.7 218.1,130 213.4,128.5 218.1,127 219.6,122.3 			"/>
			<g class="st1">
				<defs>
					<rect id="SVGID_13_" x="2" y="2" width="242.9" height="259.1"/>
				</defs>
				<clipPath id="SVGID_14_">
					<use xlink:href="#SVGID_13_"  style="overflow:visible;"/>
				</clipPath>
				<path class="st9" d="M93.6,101.3c-1.9,0-3.5,1.5-3.5,3.5v10.2h-1.8V96.6c0-1.9-1.5-3.4-3.5-3.4c-1.9,0-3.4,1.5-3.4,3.4v18.3
					h-1.8c0-0.1,0-0.2,0-0.3V93.2c0-1.9-1.5-3.5-3.4-3.5c-1.9,0-3.4,1.5-3.4,3.5v21.4c0,0.1,0,0.2,0,0.3H71V98.7
					c0-1.9-1.5-3.4-3.5-3.4s-3.5,1.5-3.5,3.4l0.2,37.7l-9-9.8c-1.3-1.4-3.5-1.5-4.9-0.2c-1.4,1.3-1.5,3.5-0.2,4.9L64.5,147
					c0.5,1.2,1.7,2.1,3.2,2.1h25.9c1.9,0,3.4-1.5,3.4-3.5v-19.5v-7.8v-13.6C97,102.8,95.5,101.3,93.6,101.3"/>
				<path class="st10" d="M91.8,101.3c-1.9,0-3.5,1.5-3.5,3.5v10.2h-1.8V96.6c0-1.9-1.5-3.4-3.5-3.4c-1.9,0-3.4,1.5-3.4,3.4v18.3
					h-1.8c0-0.1,0-0.2,0-0.3V93.2c0-1.9-1.5-3.5-3.4-3.5c-1.9,0-3.4,1.5-3.4,3.5v21.4c0,0.1,0,0.2,0,0.3h-1.8V98.7
					c0-1.9-1.5-3.4-3.4-3.4c-1.9,0-3.5,1.5-3.5,3.4l0.2,37.7l-9-9.8c-1.3-1.4-3.5-1.5-4.9-0.2c-1.4,1.3-1.5,3.5-0.2,4.9L62.7,147
					c0.5,1.2,1.7,2.1,3.2,2.1h25.9c1.9,0,3.4-1.5,3.4-3.5v-19.5v-7.8v-13.6C95.2,102.8,93.7,101.3,91.8,101.3"/>
			</g>
			<g class="st1">
				<defs>
					<path id="SVGID_15_" d="M70.9,93.2v21.4c0,0.1,0,0.2,0,0.3h-1.8V98.7c0-1.9-1.5-3.5-3.5-3.5c-1.9,0-3.5,1.5-3.5,3.5l0.2,37.7
						l-9-9.8c-1.3-1.4-3.5-1.5-4.9-0.2c-1.4,1.3-1.5,3.5-0.2,4.9L62.7,147c0.5,1.2,1.7,2.1,3.2,2.1h25.9c1.9,0,3.5-1.5,3.5-3.4
						v-19.5v-7.8v-13.6c0-1.9-1.5-3.5-3.5-3.5c-1.9,0-3.5,1.5-3.5,3.5v10.2h-1.8V96.6c0-1.9-1.5-3.5-3.5-3.5c-1.9,0-3.4,1.5-3.4,3.5
						v18.3h-1.8c0-0.1,0-0.2,0-0.3V93.2c0-1.9-1.5-3.5-3.4-3.5C72.5,89.7,70.9,91.3,70.9,93.2"/>
				</defs>
				<clipPath id="SVGID_16_">
					<use xlink:href="#SVGID_15_"  style="overflow:visible;"/>
				</clipPath>
				<path class="st11" d="M53,160.1c0,0,17.8,11.4,16.4-11.4c-1.4-22.8,26-24.6,26-24.6v27l-40.9,8.9"/>
			</g>
			<g class="st1">
				<defs>
					<rect id="SVGID_17_" x="2" y="2" width="242.9" height="259.1"/>
				</defs>
				<clipPath id="SVGID_18_">
					<use xlink:href="#SVGID_17_"  style="overflow:visible;"/>
				</clipPath>
				<rect x="56.3" y="148.7" class="st12" width="43.2" height="96.5"/>
				<g class="st13">
					<g>
						<defs>
							<rect id="SVGID_19_" x="86.2" y="148.7" width="12.9" height="96.5"/>
						</defs>
						<clipPath id="SVGID_20_">
							<use xlink:href="#SVGID_19_"  style="overflow:visible;"/>
						</clipPath>
						<g class="st14">
							<defs>
								<rect id="SVGID_21_" x="86.2" y="148.7" width="12.9" height="96.5"/>
							</defs>
							<clipPath id="SVGID_22_">
								<use xlink:href="#SVGID_21_"  style="overflow:visible;"/>
							</clipPath>
							<rect x="86.2" y="148.7" class="st15" width="12.9" height="96.5"/>
						</g>
					</g>
				</g>
				<path class="st16" d="M147.6,49c-2.5,0-4.6,2-4.6,4.6v13.5h-2.4V42.9c0-2.5-2-4.6-4.6-4.6c-2.5,0-4.6,2-4.6,4.6v24.2h-2.4
					c0-0.2,0-0.3,0-0.5V38.3c0-2.5-2-4.6-4.6-4.6c-2.5,0-4.6,2-4.6,4.6v28.4c0,0.2,0,0.3,0,0.5h-2.4V45.6c0-2.5-2-4.6-4.6-4.6
					c-2.5,0-4.6,2-4.6,4.6V74c0,0.5,0.2,21.7,0.2,21.7l-11.9-13c-1.7-1.9-4.6-2-6.5-0.3c-1.9,1.7-2,4.6-0.3,6.5l19,20.9
					c0.7,1.6,2.3,2.7,4.2,2.7h34.3c2.5,0,4.6-2,4.6-4.6V82V71.7V53.6C152.2,51.1,150.2,49,147.6,49"/>
				<path class="st17" d="M147.6,49c-2.5,0-4.6,2-4.6,4.6v13.5h-2.4V42.9c0-2.5-2-4.6-4.6-4.6c-2.5,0-4.6,2-4.6,4.6v24.2h-2.4
					c0-0.2,0-0.3,0-0.5V38.3c0-2.5-2-4.6-4.6-4.6c-2.5,0-4.6,2-4.6,4.6v28.4c0,0.2,0,0.3,0,0.5h-2.4V45.6c0-2.5-2-4.6-4.6-4.6
					c-2.5,0-4.6,2-4.6,4.6V74c0,0.5,0.2,21.7,0.2,21.7l-11.9-13c-1.7-1.9-4.6-2-6.5-0.3c-1.9,1.7-2,4.6-0.3,6.5l19,20.9
					c0.7,1.6,2.3,2.7,4.2,2.7h34.3c2.5,0,4.6-2,4.6-4.6V82V71.7V53.6C152.2,51.1,150.2,49,147.6,49z"/>
				<path class="st18" d="M144.9,49c-2.5,0-4.6,2-4.6,4.6v13.5H138V42.9c0-2.5-2-4.6-4.6-4.6c-2.5,0-4.6,2-4.6,4.6v24.2h-2.4
					c0-0.2,0-0.3,0-0.5V38.3c0-2.5-2.1-4.6-4.6-4.6c-2.5,0-4.6,2-4.6,4.6v28.4c0,0.2,0,0.3,0,0.5h-2.4V45.6c0-2.5-2-4.6-4.6-4.6
					c-2.5,0-4.6,2-4.6,4.6V74c0,0.5,0.2,21.7,0.2,21.7l-11.9-13c-1.7-1.9-4.6-2-6.5-0.3c-1.9,1.7-2,4.6-0.3,6.5l19,20.9
					c0.7,1.6,2.3,2.7,4.2,2.7h34.3c2.5,0,4.6-2,4.6-4.6V82V71.7V53.6C149.5,51.1,147.4,49,144.9,49"/>
			</g>
			<g class="st1">
				<defs>
					<path id="SVGID_23_" d="M117.3,38.3v28.4c0,0.2,0,0.3,0,0.5h-2.4V45.6c0-2.5-2-4.6-4.6-4.6c-2.5,0-4.6,2-4.6,4.6V74
						c0,0.5,0.2,21.7,0.2,21.7l-11.9-13c-1.7-1.9-4.6-2-6.5-0.3c-1.9,1.7-2,4.6-0.3,6.5l19,20.9c0.7,1.6,2.3,2.7,4.2,2.7h34.3
						c2.5,0,4.6-2,4.6-4.6V82V71.7V53.6c0-2.5-2-4.6-4.6-4.6c-2.5,0-4.6,2-4.6,4.6v13.5H138V42.9c0-2.5-2-4.6-4.6-4.6
						c-2.5,0-4.6,2-4.6,4.6v24.2h-2.4c0-0.2,0-0.3,0-0.5V38.3c0-2.5-2.1-4.6-4.6-4.6C119.3,33.7,117.3,35.8,117.3,38.3"/>
				</defs>
				<clipPath id="SVGID_24_">
					<use xlink:href="#SVGID_23_"  style="overflow:visible;"/>
				</clipPath>
				<path class="st19" d="M96.5,123.4c0,0,17.4,5.3,17.6-11c0.4-34.2,39-34.1,39-34.1l34.9,37.4L96.5,123.4z"/>
			</g>
			<g class="st1">
				<defs>
					<rect id="SVGID_25_" x="2" y="2" width="242.9" height="259.1"/>
				</defs>
				<clipPath id="SVGID_26_">
					<use xlink:href="#SVGID_25_"  style="overflow:visible;"/>
				</clipPath>
				<rect x="99.1" y="111.8" class="st20" width="54.7" height="133.7"/>
				<g class="st21">
					<g>
						<defs>
							<rect id="SVGID_27_" x="137.3" y="111.8" width="16.5" height="133.7"/>
						</defs>
						<clipPath id="SVGID_28_">
							<use xlink:href="#SVGID_27_"  style="overflow:visible;"/>
						</clipPath>
						<g class="st22">
							<defs>
								<rect id="SVGID_29_" x="137.3" y="111.8" width="16.5" height="133.7"/>
							</defs>
							<clipPath id="SVGID_30_">
								<use xlink:href="#SVGID_29_"  style="overflow:visible;"/>
							</clipPath>
							<rect x="137.3" y="111.8" class="st23" width="16.5" height="133.7"/>
						</g>
					</g>
				</g>
				<g class="st24">
					<g>
						<defs>
							<rect id="SVGID_31_" x="68.7" y="157" width="103.8" height="104.1"/>
						</defs>
						<clipPath id="SVGID_32_">
							<use xlink:href="#SVGID_31_"  style="overflow:visible;"/>
						</clipPath>
					</g>
				</g>
				<rect x="153.7" y="138.5" class="st25" width="43.4" height="107"/>
				<g class="st26">
					<g>
						<defs>
							<rect id="SVGID_33_" x="184.5" y="138.5" width="12.6" height="107"/>
						</defs>
						<clipPath id="SVGID_34_">
							<use xlink:href="#SVGID_33_"  style="overflow:visible;"/>
						</clipPath>
						<g class="st27">
							<defs>
								<rect id="SVGID_35_" x="184.5" y="138.5" width="12.6" height="107"/>
							</defs>
							<clipPath id="SVGID_36_">
								<use xlink:href="#SVGID_35_"  style="overflow:visible;"/>
							</clipPath>
							<rect x="184.5" y="138.5" class="st28" width="12.6" height="107"/>
						</g>
					</g>
				</g>
				<path class="st25" d="M191.3,91.3c-1.9,0-3.4,1.5-3.4,3.4v10h-1.8v-18c0-1.9-1.5-3.4-3.4-3.4c-1.9,0-3.4,1.5-3.4,3.4v18h-1.8
					c0-0.1,0-0.2,0-0.3V83.3c0-1.9-1.5-3.4-3.4-3.4s-3.4,1.5-3.4,3.4v21.1c0,0.1,0,0.2,0,0.3H169v-16c0-1.9-1.5-3.4-3.4-3.4
					c-1.9,0-3.4,1.5-3.4,3.4l0.2,37.2l-8.8-9.7c-1.3-1.4-3.4-1.5-4.8-0.2c-1.4,1.3-1.5,3.4-0.2,4.8l14.2,15.5c0.5,1.2,1.7,2,3.1,2
					h25.5c1.9,0,3.4-1.5,3.4-3.4v-19.2v-7.7V94.7C194.7,92.9,193.1,91.3,191.3,91.3"/>
				<path class="st29" d="M188.8,91.3c-1.9,0-3.4,1.5-3.4,3.4v10h-1.8v-18c0-1.9-1.5-3.4-3.4-3.4c-1.9,0-3.4,1.5-3.4,3.4v18h-1.8
					c0-0.1,0-0.2,0-0.3V83.3c0-1.9-1.5-3.4-3.4-3.4c-1.9,0-3.4,1.5-3.4,3.4v21.1c0,0.1,0,0.2,0,0.3h-1.8v-16c0-1.9-1.5-3.4-3.4-3.4
					c-1.9,0-3.4,1.5-3.4,3.4l0.2,37.2l-8.8-9.7c-1.3-1.4-3.4-1.5-4.8-0.2c-1.4,1.3-1.5,3.4-0.2,4.8l14.2,15.5c0.5,1.2,1.7,2,3.1,2
					h25.5c1.9,0,3.4-1.5,3.4-3.4v-19.2v-7.7V94.7C192.2,92.9,190.7,91.3,188.8,91.3"/>
			</g>
			<g class="st1">
				<defs>
					<path id="SVGID_37_" d="M168.3,83.3v21.1c0,0.1,0,0.2,0,0.3h-1.8v-16c0-1.9-1.5-3.4-3.4-3.4c-1.9,0-3.4,1.5-3.4,3.4l0.2,37.2
						l-8.8-9.7c-1.3-1.4-3.4-1.5-4.8-0.2c-1.4,1.3-1.5,3.4-0.2,4.8l14.2,15.5c0.5,1.2,1.7,2,3.1,2h25.5c1.9,0,3.4-1.5,3.4-3.4v-19.2
						v-7.7V94.7c0-1.9-1.5-3.4-3.4-3.4c-1.9,0-3.4,1.5-3.4,3.4v10h-1.8v-18c0-1.9-1.5-3.4-3.4-3.4c-1.9,0-3.4,1.5-3.4,3.4v18h-1.8
						c0-0.1,0-0.2,0-0.3V83.3c0-1.9-1.5-3.4-3.4-3.4C169.8,79.9,168.3,81.5,168.3,83.3"/>
				</defs>
				<clipPath id="SVGID_38_">
					<use xlink:href="#SVGID_37_"  style="overflow:visible;"/>
				</clipPath>
				<path class="st30" d="M149.8,151.1c0,0,12.5,15.6,16.4-12.6c3.9-28.2,32.4-26.7,32.4-26.7l2.7,30.3L149.8,151.1z"/>
			</g>
			<g class="st1">
				<defs>
					<rect id="SVGID_39_" x="2" y="2" width="242.9" height="259.1"/>
				</defs>
				<clipPath id="SVGID_40_">
					<use xlink:href="#SVGID_39_"  style="overflow:visible;"/>
				</clipPath>
				<polygon class="st31" points="166.3,218.4 171,219.9 166.3,221.5 164.8,226.2 163.3,221.5 158.6,219.9 163.3,218.4 164.8,213.7 
									"/>
			</g>
		</g>
	</g>
</g>
</svg>
